<svg width="500" height="750" viewBox="0 0 500 750" fill="none" xmlns="http://www.w3.org/2000/svg">
<rect width="500" height="750" fill="#4A5565"/>
<path d="M162.977 330H158.609L141.041 303.36V330H136.673V296.496H141.041L158.609 323.088V296.496H162.977V330ZM181.895 330.432C179.431 330.432 177.191 329.872 175.175 328.752C173.191 327.632 171.623 326.048 170.471 324C169.351 321.92 168.791 319.52 168.791 316.8C168.791 314.112 169.367 311.744 170.519 309.696C171.703 307.616 173.303 306.032 175.319 304.944C177.335 303.824 179.591 303.264 182.087 303.264C184.583 303.264 186.839 303.824 188.855 304.944C190.871 306.032 192.455 307.6 193.607 309.648C194.791 311.696 195.383 314.08 195.383 316.8C195.383 319.52 194.775 321.92 193.559 324C192.375 326.048 190.759 327.632 188.711 328.752C186.663 329.872 184.391 330.432 181.895 330.432ZM181.895 326.592C183.463 326.592 184.935 326.224 186.311 325.488C187.687 324.752 188.791 323.648 189.623 322.176C190.487 320.704 190.919 318.912 190.919 316.8C190.919 314.688 190.503 312.896 189.671 311.424C188.839 309.952 187.751 308.864 186.407 308.16C185.063 307.424 183.607 307.056 182.039 307.056C180.439 307.056 178.967 307.424 177.623 308.16C176.311 308.864 175.255 309.952 174.455 311.424C173.655 312.896 173.255 314.688 173.255 316.8C173.255 318.944 173.639 320.752 174.407 322.224C175.207 323.696 176.263 324.8 177.575 325.536C178.887 326.24 180.327 326.592 181.895 326.592ZM218.291 296.544V330H213.923V296.544H218.291ZM257.368 303.216C259.416 303.216 261.24 303.648 262.84 304.512C264.44 305.344 265.704 306.608 266.632 308.304C267.56 310 268.024 312.064 268.024 314.496V330H263.704V315.12C263.704 312.496 263.048 310.496 261.736 309.12C260.456 307.712 258.712 307.008 256.504 307.008C254.232 307.008 252.424 307.744 251.08 309.216C249.736 310.656 249.064 312.752 249.064 315.504V330H244.744V315.12C244.744 312.496 244.088 310.496 242.776 309.12C241.496 307.712 239.752 307.008 237.544 307.008C235.272 307.008 233.464 307.744 232.12 309.216C230.776 310.656 230.104 312.752 230.104 315.504V330H225.736V303.696H230.104V307.488C230.968 306.112 232.12 305.056 233.56 304.32C235.032 303.584 236.648 303.216 238.408 303.216C240.616 303.216 242.568 303.712 244.264 304.704C245.96 305.696 247.224 307.152 248.056 309.072C248.792 307.216 250.008 305.776 251.704 304.752C253.4 303.728 255.288 303.216 257.368 303.216ZM273.557 316.752C273.557 314.064 274.101 311.712 275.189 309.696C276.277 307.648 277.765 306.064 279.653 304.944C281.573 303.824 283.701 303.264 286.037 303.264C288.341 303.264 290.341 303.76 292.037 304.752C293.733 305.744 294.997 306.992 295.829 308.496V303.696H300.245V330H295.829V325.104C294.965 326.64 293.669 327.92 291.941 328.944C290.245 329.936 288.261 330.432 285.989 330.432C283.653 330.432 281.541 329.856 279.653 328.704C277.765 327.552 276.277 325.936 275.189 323.856C274.101 321.776 273.557 319.408 273.557 316.752ZM295.829 316.8C295.829 314.816 295.429 313.088 294.629 311.616C293.829 310.144 292.741 309.024 291.365 308.256C290.021 307.456 288.533 307.056 286.901 307.056C285.269 307.056 283.781 307.44 282.437 308.208C281.093 308.976 280.021 310.096 279.221 311.568C278.421 313.04 278.021 314.768 278.021 316.752C278.021 318.768 278.421 320.528 279.221 322.032C280.021 323.504 281.093 324.64 282.437 325.44C283.781 326.208 285.269 326.592 286.901 326.592C288.533 326.592 290.021 326.208 291.365 325.44C292.741 324.64 293.829 323.504 294.629 322.032C295.429 320.528 295.829 318.784 295.829 316.8ZM318.475 303.264C320.747 303.264 322.731 303.76 324.427 304.752C326.155 305.744 327.435 306.992 328.267 308.496V303.696H332.683V330.576C332.683 332.976 332.171 335.104 331.147 336.96C330.123 338.848 328.651 340.32 326.731 341.376C324.843 342.432 322.635 342.96 320.107 342.96C316.651 342.96 313.771 342.144 311.467 340.512C309.163 338.88 307.803 336.656 307.387 333.84H311.707C312.187 335.44 313.179 336.72 314.683 337.68C316.187 338.672 317.995 339.168 320.107 339.168C322.507 339.168 324.459 338.416 325.963 336.912C327.499 335.408 328.267 333.296 328.267 330.576V325.056C327.403 326.592 326.123 327.872 324.427 328.896C322.731 329.92 320.747 330.432 318.475 330.432C316.139 330.432 314.011 329.856 312.091 328.704C310.203 327.552 308.715 325.936 307.627 323.856C306.539 321.776 305.995 319.408 305.995 316.752C305.995 314.064 306.539 311.712 307.627 309.696C308.715 307.648 310.203 306.064 312.091 304.944C314.011 303.824 316.139 303.264 318.475 303.264ZM328.267 316.8C328.267 314.816 327.867 313.088 327.067 311.616C326.267 310.144 325.179 309.024 323.803 308.256C322.459 307.456 320.971 307.056 319.339 307.056C317.707 307.056 316.219 307.44 314.875 308.208C313.531 308.976 312.459 310.096 311.659 311.568C310.859 313.04 310.459 314.768 310.459 316.752C310.459 318.768 310.859 320.528 311.659 322.032C312.459 323.504 313.531 324.64 314.875 325.44C316.219 326.208 317.707 326.592 319.339 326.592C320.971 326.592 322.459 326.208 323.803 325.44C325.179 324.64 326.267 323.504 327.067 322.032C327.867 320.528 328.267 318.784 328.267 316.8ZM364.064 315.84C364.064 316.672 364.016 317.552 363.92 318.48H342.896C343.056 321.072 343.936 323.104 345.536 324.576C347.168 326.016 349.136 326.736 351.44 326.736C353.328 326.736 354.896 326.304 356.144 325.44C357.424 324.544 358.32 323.36 358.832 321.888H363.536C362.832 324.416 361.424 326.48 359.312 328.08C357.2 329.648 354.576 330.432 351.44 330.432C348.944 330.432 346.704 329.872 344.72 328.752C342.768 327.632 341.232 326.048 340.112 324C338.992 321.92 338.432 319.52 338.432 316.8C338.432 314.08 338.976 311.696 340.064 309.648C341.152 307.6 342.672 306.032 344.624 304.944C346.608 303.824 348.88 303.264 351.44 303.264C353.936 303.264 356.144 303.808 358.064 304.896C359.984 305.984 361.456 307.488 362.48 309.408C363.536 311.296 364.064 313.44 364.064 315.84ZM359.552 314.928C359.552 313.264 359.184 311.84 358.448 310.656C357.712 309.44 356.704 308.528 355.424 307.92C354.176 307.28 352.784 306.96 351.248 306.96C349.04 306.96 347.152 307.664 345.584 309.072C344.048 310.48 343.168 312.432 342.944 314.928H359.552ZM162.145 394.56H147.553L144.865 402H140.257L152.353 368.736H157.393L169.441 402H164.833L162.145 394.56ZM160.897 391.008L154.849 374.112L148.801 391.008H160.897ZM184.504 397.968L192.664 375.696H197.32L187 402H181.912L171.592 375.696H176.296L184.504 397.968ZM199.987 388.752C199.987 386.064 200.531 383.712 201.619 381.696C202.707 379.648 204.195 378.064 206.083 376.944C208.003 375.824 210.131 375.264 212.467 375.264C214.771 375.264 216.771 375.76 218.467 376.752C220.163 377.744 221.427 378.992 222.259 380.496V375.696H226.675V402H222.259V397.104C221.395 398.64 220.099 399.92 218.371 400.944C216.675 401.936 214.691 402.432 212.419 402.432C210.083 402.432 207.971 401.856 206.083 400.704C204.195 399.552 202.707 397.936 201.619 395.856C200.531 393.776 199.987 391.408 199.987 388.752ZM222.259 388.8C222.259 386.816 221.859 385.088 221.059 383.616C220.259 382.144 219.171 381.024 217.795 380.256C216.451 379.456 214.963 379.056 213.331 379.056C211.699 379.056 210.211 379.44 208.867 380.208C207.523 380.976 206.451 382.096 205.651 383.568C204.851 385.04 204.451 386.768 204.451 388.752C204.451 390.768 204.851 392.528 205.651 394.032C206.451 395.504 207.523 396.64 208.867 397.44C210.211 398.208 211.699 398.592 213.331 398.592C214.963 398.592 216.451 398.208 217.795 397.44C219.171 396.64 220.259 395.504 221.059 394.032C221.859 392.528 222.259 390.784 222.259 388.8ZM236.312 371.424C235.48 371.424 234.776 371.136 234.2 370.56C233.624 369.984 233.336 369.28 233.336 368.448C233.336 367.616 233.624 366.912 234.2 366.336C234.776 365.76 235.48 365.472 236.312 365.472C237.112 365.472 237.784 365.76 238.328 366.336C238.904 366.912 239.192 367.616 239.192 368.448C239.192 369.28 238.904 369.984 238.328 370.56C237.784 371.136 237.112 371.424 236.312 371.424ZM238.424 375.696V402H234.056V375.696H238.424ZM250.237 366.48V402H245.869V366.48H250.237ZM256.049 388.752C256.049 386.064 256.593 383.712 257.681 381.696C258.769 379.648 260.257 378.064 262.145 376.944C264.065 375.824 266.193 375.264 268.529 375.264C270.833 375.264 272.833 375.76 274.529 376.752C276.225 377.744 277.489 378.992 278.321 380.496V375.696H282.737V402H278.321V397.104C277.457 398.64 276.161 399.92 274.433 400.944C272.737 401.936 270.753 402.432 268.481 402.432C266.145 402.432 264.033 401.856 262.145 400.704C260.257 399.552 258.769 397.936 257.681 395.856C256.593 393.776 256.049 391.408 256.049 388.752ZM278.321 388.8C278.321 386.816 277.921 385.088 277.121 383.616C276.321 382.144 275.233 381.024 273.857 380.256C272.513 379.456 271.025 379.056 269.393 379.056C267.761 379.056 266.273 379.44 264.929 380.208C263.585 380.976 262.513 382.096 261.713 383.568C260.913 385.04 260.513 386.768 260.513 388.752C260.513 390.768 260.913 392.528 261.713 394.032C262.513 395.504 263.585 396.64 264.929 397.44C266.273 398.208 267.761 398.592 269.393 398.592C271.025 398.592 272.513 398.208 273.857 397.44C275.233 396.64 276.321 395.504 277.121 394.032C277.921 392.528 278.321 390.784 278.321 388.8ZM294.487 380.592C295.383 379.024 296.695 377.744 298.423 376.752C300.151 375.76 302.119 375.264 304.327 375.264C306.695 375.264 308.823 375.824 310.711 376.944C312.599 378.064 314.087 379.648 315.175 381.696C316.263 383.712 316.807 386.064 316.807 388.752C316.807 391.408 316.263 393.776 315.175 395.856C314.087 397.936 312.583 399.552 310.663 400.704C308.775 401.856 306.663 402.432 304.327 402.432C302.055 402.432 300.055 401.936 298.327 400.944C296.631 399.952 295.351 398.688 294.487 397.152V402H290.119V366.48H294.487V380.592ZM312.343 388.752C312.343 386.768 311.943 385.04 311.143 383.568C310.343 382.096 309.255 380.976 307.879 380.208C306.535 379.44 305.047 379.056 303.415 379.056C301.815 379.056 300.327 379.456 298.951 380.256C297.607 381.024 296.519 382.16 295.687 383.664C294.887 385.136 294.487 386.848 294.487 388.8C294.487 390.784 294.887 392.528 295.687 394.032C296.519 395.504 297.607 396.64 298.951 397.44C300.327 398.208 301.815 398.592 303.415 398.592C305.047 398.592 306.535 398.208 307.879 397.44C309.255 396.64 310.343 395.504 311.143 394.032C311.943 392.528 312.343 390.768 312.343 388.752ZM326.924 366.48V402H322.556V366.48H326.924ZM358.369 387.84C358.369 388.672 358.321 389.552 358.225 390.48H337.201C337.361 393.072 338.241 395.104 339.841 396.576C341.473 398.016 343.441 398.736 345.745 398.736C347.633 398.736 349.201 398.304 350.449 397.44C351.729 396.544 352.625 395.36 353.137 393.888H357.841C357.137 396.416 355.729 398.48 353.617 400.08C351.505 401.648 348.881 402.432 345.745 402.432C343.249 402.432 341.009 401.872 339.025 400.752C337.073 399.632 335.537 398.048 334.417 396C333.297 393.92 332.737 391.52 332.737 388.8C332.737 386.08 333.281 383.696 334.369 381.648C335.457 379.6 336.977 378.032 338.929 376.944C340.913 375.824 343.185 375.264 345.745 375.264C348.241 375.264 350.449 375.808 352.369 376.896C354.289 377.984 355.761 379.488 356.785 381.408C357.841 383.296 358.369 385.44 358.369 387.84ZM353.857 386.928C353.857 385.264 353.489 383.84 352.753 382.656C352.017 381.44 351.009 380.528 349.729 379.92C348.481 379.28 347.089 378.96 345.553 378.96C343.345 378.96 341.457 379.664 339.889 381.072C338.353 382.48 337.473 384.432 337.249 386.928H353.857Z" fill="white"/>
</svg>
